<?xml version="1.0" encoding="utf-8"?>
<!-- Generator: Adobe Illustrator 18.1.0, SVG Export Plug-In . SVG Version: 6.00 Build 0)  -->
<svg version="1.1" xmlns="http://www.w3.org/2000/svg" xmlns:xlink="http://www.w3.org/1999/xlink" x="0px" y="0px"
	 viewBox="0 0 1000 1000" enable-background="new 0 0 1000 1000" xml:space="preserve">
<g id="headphone">
	<g id="connector">
		<path fill="#FFFFFF" d="M840.5,426.1c-55.9-392.7-623-392.7-678.9,0c-4.7-0.7-9.3-1.3-14-2c58.2-408.9,648.6-408.9,706.8,0
			C849.8,424.8,845.2,425.4,840.5,426.1z"/>
		<path fill="none" stroke="#231F20" stroke-miterlimit="10" d="M840.5,426.1c-55.9-392.7-623-392.7-678.9,0c-4.7-0.7-9.3-1.3-14-2
			c58.2-408.9,648.6-408.9,706.8,0C849.8,424.8,845.2,425.4,840.5,426.1z"/>
	</g>
	<g id="right-ear">
		<path id="small_1_" fill="#FFFFFF" stroke="#231F20" stroke-miterlimit="10" d="M208.3,708h-10c-6.6,0-12-5.4-12-12V424
			c0-6.6,5.4-12,12-12h10c6.6,0,12,5.4,12,12v272C220.3,702.6,214.9,708,208.3,708z"/>
		<path id="large_1_" fill="#FFFFFF" stroke="#231F20" stroke-miterlimit="10" d="M188.5,709.5c0,16.6-13.4,30-30,30h-2
			c-16.6,0-30-13.4-30-30v-309c0-16.6,13.4-30,30-30h2c16.6,0,30,13.4,30,30V709.5z"/>
		<g id="halfsphere">
			<defs>
				<rect id="SVGID_1_" x="-0.5" y="365" width="129.5" height="380"/>
			</defs>
			<clipPath id="SVGID_2_">
				<use xlink:href="#SVGID_1_"  overflow="visible"/>
			</clipPath>
			<path clip-path="url(#SVGID_2_)" fill="#FFFFFF" stroke="#231F20" stroke-miterlimit="10" d="M129,405.2L129,405.2
				c52.8,0,96,43.2,96,96v100.7c0,52.8-43.2,96-96,96h0c-52.8,0-96-43.2-96-96V501.2C33,448.4,76.2,405.2,129,405.2z"/>
		</g>
	</g>
	<g id="left-ear">
		<path id="small_2_" fill="#FFFFFF" stroke="#231F20" stroke-miterlimit="10" d="M791.5,402h10c6.6,0,12,5.4,12,12v272
			c0,6.6-5.4,12-12,12h-10c-6.6,0-12-5.4-12-12V414C779.5,407.4,784.9,402,791.5,402z"/>
		<path id="large_2_" fill="#FFFFFF" stroke="#231F20" stroke-miterlimit="10" d="M873.5,709.5c0,16.6-13.4,30-30,30h-2
			c-16.6,0-30-13.4-30-30v-309c0-16.6,13.4-30,30-30h2c16.6,0,30,13.4,30,30V709.5z"/>
		<g id="halfsphere_1_">
			<defs>
				<rect id="SVGID_3_" x="870.8" y="365" width="129.5" height="380"/>
			</defs>
			<clipPath id="SVGID_4_">
				<use xlink:href="#SVGID_3_"  overflow="visible"/>
			</clipPath>
			<path clip-path="url(#SVGID_4_)" fill="#FFFFFF" stroke="#231F20" stroke-miterlimit="10" d="M870.8,704.8L870.8,704.8
				c-52.8,0-96-43.2-96-96V508.1c0-52.8,43.2-96,96-96h0c52.8,0,96,43.2,96,96v100.7C966.8,661.6,923.6,704.8,870.8,704.8z"/>
		</g>
	</g>
</g>
<g id="music-note">
	<path display="none" fill="#FFFFFF" stroke="#231F20" stroke-miterlimit="10" d="M471,337.4v176c0,0-46-24-56,14s40,38,56,38
		s30.1-20,30-42c0-22-1-152-1-152l93,80v212c0,0-42-41-68-5.5s3.9,55.7,71.9,43.1c14.1-2.6,36.1-17.6,36.1-17.6v-252l-162-136V337.4
		z"/>
</g>
</svg>
