<?xml version="1.0" encoding="utf-8"?>
<!-- Generator: Adobe Illustrator 18.1.0, SVG Export Plug-In . SVG Version: 6.00 Build 0)  -->
<svg version="1.1" id="microphone" xmlns="http://www.w3.org/2000/svg" xmlns:xlink="http://www.w3.org/1999/xlink" x="0px" y="0px"
	 viewBox="0 0 1500 1500" enable-background="new 0 0 1500 1500" xml:space="preserve">
<g id="handle">
	<path fill="#FFFFFF" d="M926.8,1405.2c-102.5,69-242.4,69-344.9,0c-12.4-299.7-24.5-598.9-35.9-899.6
		c56.7,54.4,132.5,90,208.4,89.3c75.8,0.7,151.7-34.9,208.4-89.3C951.3,806.3,939.3,1105.5,926.8,1405.2z"/>
	<path fill="none" stroke="#231F20" stroke-miterlimit="10" d="M926.8,1405.2c-102.5,69-242.4,69-344.9,0
		c-12.4-299.7-24.5-598.9-35.9-899.6c56.7,54.4,132.5,90,208.4,89.3c75.8,0.7,151.7-34.9,208.4-89.3
		C951.3,806.3,939.3,1105.5,926.8,1405.2z"/>
</g>
<circle id="sphere" fill="#FFFFFF" stroke="#231F20" stroke-miterlimit="10" cx="758" cy="323" r="277"/>
<g id="band-on-handle">
	<path fill="#FFFFFF" d="M971.5,640.1c-145.3-2.4-287.7-2.4-433,0c-6.6-52.3-13.2-104.5-19.8-156.8c158.5-3,314.1-3,472.6,0
		C984.7,535.6,978.1,587.8,971.5,640.1z"/>
	<path fill="none" stroke="#231F20" stroke-miterlimit="10" d="M971.5,640.1c-145.3-2.4-287.7-2.4-433,0
		c-6.6-52.3-13.2-104.5-19.8-156.8c158.5-3,314.1-3,472.6,0C984.7,535.6,978.1,587.8,971.5,640.1z"/>
</g>
<g id="band-on-sphere">
	<path fill="#FFFFFF" d="M1029.4,358.3c-180.9,5.4-362,5.4-542.9,0c-6.7-0.2-11.9-5.8-11.7-12.4c0.6-19,1.2-38,1.8-57
		c0.2-6.6,5.8-11.8,12.4-11.6c179.3,5.4,358.7,5.4,538,0c6.6-0.2,12.2,5,12.4,11.6c0.6,19,1.2,38,1.8,57
		C1041.4,352.6,1036.1,358.1,1029.4,358.3z"/>
	<path fill="none" stroke="#231F20" stroke-miterlimit="10" d="M1029.4,358.3c-180.9,5.4-362,5.4-542.9,0
		c-6.7-0.2-11.9-5.8-11.7-12.4c0.6-19,1.2-38,1.8-57c0.2-6.6,5.8-11.8,12.4-11.6c179.3,5.4,358.7,5.4,538,0
		c6.6-0.2,12.2,5,12.4,11.6c0.6,19,1.2,38,1.8,57C1041.4,352.6,1036.1,358.1,1029.4,358.3z"/>
</g>
<g id="waves" display="none">
	<g id="left-wave" display="inline">
		<path fill="#FFFFFF" d="M471,701c-2,7.1-4.1,14.1-6.1,21.2c-343-99.7-343-585.7,0-685.3c2,7.1,4.1,14.1,6.1,21.2
			C149.2,151.5,149.2,607.5,471,701z"/>
		<path fill="none" stroke="#231F20" stroke-miterlimit="10" d="M471,701c-2,7.1-4.1,14.1-6.1,21.2c-343-99.7-343-585.7,0-685.3
			c2,7.1,4.1,14.1,6.1,21.2C149.2,151.5,149.2,607.5,471,701z"/>
	</g>
	<g id="right-wave" display="inline">
		<path fill="#FFFFFF" d="M1046.6,723.9c-2.1-7.3-4.2-14.6-6.4-21.9c321.9-93.5,321.9-549.5,0-643c2.1-7.3,4.2-14.6,6.4-21.9
			C1390.3,137,1390.3,624,1046.6,723.9z"/>
		<path fill="none" stroke="#231F20" stroke-miterlimit="10" d="M1046.6,723.9c-2.1-7.3-4.2-14.6-6.4-21.9
			c321.9-93.5,321.9-549.5,0-643c2.1-7.3,4.2-14.6,6.4-21.9C1390.3,137,1390.3,624,1046.6,723.9z"/>
	</g>
</g>
</svg>
